{
    "asset" : {
        "generator" : "Khronos glTF Blender I/O v3.3.32",
        "version" : "2.0"
    },
    "scene" : 0,
    "scenes" : [
        {
            "name" : "Scene",
            "nodes" : [
                0
            ]
        }
    ],
    "nodes" : [
        {
            "mesh" : 0,
            "name" : "Cube.002",
            "rotation" : [
                0,
                -0.04657047614455223,
                0,
                0.9989150166511536
            ],
            "scale" : [
                1.5686237812042236,
                0.9343082308769226,
                0.4220764935016632
            ],
            "translation" : [
                16.08724594116211,
                1.0216963291168213,
                -1.2993829250335693
            ]
        }
    ],
    "animations" : [
        {
            "channels" : [
                {
                    "sampler" : 0,
                    "target" : {
                        "node" : 0,
                        "path" : "translation"
                    }
                },
                {
                    "sampler" : 1,
                    "target" : {
                        "node" : 0,
                        "path" : "rotation"
                    }
                },
                {
                    "sampler" : 2,
                    "target" : {
                        "node" : 0,
                        "path" : "scale"
                    }
                }
            ],
            "name" : "Cube.002",
            "samplers" : [
                {
                    "input" : 28,
                    "interpolation" : "LINEAR",
                    "output" : 29
                },
                {
                    "input" : 28,
                    "interpolation" : "LINEAR",
                    "output" : 30
                },
                {
                    "input" : 28,
                    "interpolation" : "LINEAR",
                    "output" : 31
                }
            ]
        }
    ],
    "materials" : [
        {
            "doubleSided" : true,
            "name" : "stone light",
            "pbrMetallicRoughness" : {
                "baseColorFactor" : [
                    0.12148302048444748,
                    0.0925261378288269,
                    0.05395966023206711,
                    1
                ],
                "metallicFactor" : 0,
                "roughnessFactor" : 0.5
            }
        },
        {
            "doubleSided" : true,
            "name" : "stone dark",
            "pbrMetallicRoughness" : {
                "baseColorFactor" : [
                    0.04569915309548378,
                    0.03320207819342613,
                    0.02093132957816124,
                    1
                ],
                "metallicFactor" : 0,
                "roughnessFactor" : 0.5
            }
        },
        {
            "doubleSided" : true,
            "name" : "new green med",
            "pbrMetallicRoughness" : {
                "baseColorFactor" : [
                    0.08300872147083282,
                    0.18446806073188782,
                    0.058145444840192795,
                    1
                ],
                "metallicFactor" : 0,
                "roughnessFactor" : 0.5
            }
        },
        {
            "doubleSided" : true,
            "name" : "new purple.003",
            "pbrMetallicRoughness" : {
                "baseColorFactor" : [
                    0.09083940833806992,
                    0.05729494243860245,
                    0.08982118964195251,
                    1
                ],
                "metallicFactor" : 0,
                "roughnessFactor" : 0.5
            }
        },
        {
            "doubleSided" : true,
            "name" : "new green med/dark",
            "pbrMetallicRoughness" : {
                "baseColorFactor" : [
                    0.0466822013258934,
                    0.1004791259765625,
                    0.033287543803453445,
                    1
                ],
                "metallicFactor" : 0,
                "roughnessFactor" : 0.5
            }
        },
        {
            "doubleSided" : true,
            "name" : "new green xdark.001",
            "pbrMetallicRoughness" : {
                "baseColorFactor" : [
                    0.01913481578230858,
                    0.03853574022650719,
                    0.014118634164333344,
                    1
                ],
                "metallicFactor" : 0,
                "roughnessFactor" : 0.5
            }
        },
        {
            "doubleSided" : true,
            "name" : "stone med",
            "pbrMetallicRoughness" : {
                "baseColorFactor" : [
                    0.0782862976193428,
                    0.05728227645158768,
                    0.031089307740330696,
                    1
                ],
                "metallicFactor" : 0,
                "roughnessFactor" : 0.5
            }
        }
    ],
    "meshes" : [
        {
            "name" : "Cube.011",
            "primitives" : [
                {
                    "attributes" : {
                        "POSITION" : 0,
                        "NORMAL" : 1,
                        "TEXCOORD_0" : 2
                    },
                    "indices" : 3,
                    "material" : 0
                },
                {
                    "attributes" : {
                        "POSITION" : 4,
                        "NORMAL" : 5,
                        "TEXCOORD_0" : 6
                    },
                    "indices" : 7,
                    "material" : 1
                },
                {
                    "attributes" : {
                        "POSITION" : 8,
                        "NORMAL" : 9,
                        "TEXCOORD_0" : 10
                    },
                    "indices" : 11,
                    "material" : 2
                },
                {
                    "attributes" : {
                        "POSITION" : 12,
                        "NORMAL" : 13,
                        "TEXCOORD_0" : 14
                    },
                    "indices" : 15,
                    "material" : 3
                },
                {
                    "attributes" : {
                        "POSITION" : 16,
                        "NORMAL" : 17,
                        "TEXCOORD_0" : 18
                    },
                    "indices" : 19,
                    "material" : 4
                },
                {
                    "attributes" : {
                        "POSITION" : 20,
                        "NORMAL" : 21,
                        "TEXCOORD_0" : 22
                    },
                    "indices" : 23,
                    "material" : 5
                },
                {
                    "attributes" : {
                        "POSITION" : 24,
                        "NORMAL" : 25,
                        "TEXCOORD_0" : 26
                    },
                    "indices" : 27,
                    "material" : 6
                }
            ]
        }
    ],
    "accessors" : [
        {
            "bufferView" : 0,
            "componentType" : 5126,
            "count" : 25381,
            "max" : [
                1.8700101375579834,
                4.109946250915527,
                1.053087592124939
            ],
            "min" : [
                -1.4439724683761597,
                -0.9999998807907104,
                -1
            ],
            "type" : "VEC3"
        },
        {
            "bufferView" : 1,
            "componentType" : 5126,
            "count" : 25381,
            "type" : "VEC3"
        },
        {
            "bufferView" : 2,
            "componentType" : 5126,
            "count" : 25381,
            "type" : "VEC2"
        },
        {
            "bufferView" : 3,
            "componentType" : 5123,
            "count" : 76167,
            "type" : "SCALAR"
        },
        {
            "bufferView" : 4,
            "componentType" : 5126,
            "count" : 136846,
            "max" : [
                2.299024820327759,
                4.347741603851318,
                1.0773357152938843
            ],
            "min" : [
                -0.8004087805747986,
                -0.9968927502632141,
                -0.8038255572319031
            ],
            "type" : "VEC3"
        },
        {
            "bufferView" : 5,
            "componentType" : 5126,
            "count" : 136846,
            "type" : "VEC3"
        },
        {
            "bufferView" : 6,
            "componentType" : 5126,
            "count" : 136846,
            "type" : "VEC2"
        },
        {
            "bufferView" : 7,
            "componentType" : 5125,
            "count" : 336894,
            "type" : "SCALAR"
        },
        {
            "bufferView" : 8,
            "componentType" : 5126,
            "count" : 1760,
            "max" : [
                2.5377345085144043,
                3.8668835163116455,
                2.4813811779022217
            ],
            "min" : [
                -1.7411994934082031,
                1.2244079113006592,
                -1.186806321144104
            ],
            "type" : "VEC3"
        },
        {
            "bufferView" : 9,
            "componentType" : 5126,
            "count" : 1760,
            "type" : "VEC3"
        },
        {
            "bufferView" : 10,
            "componentType" : 5126,
            "count" : 1760,
            "type" : "VEC2"
        },
        {
            "bufferView" : 11,
            "componentType" : 5123,
            "count" : 2640,
            "type" : "SCALAR"
        },
        {
            "bufferView" : 12,
            "componentType" : 5126,
            "count" : 2696,
            "max" : [
                2.155456304550171,
                3.416726589202881,
                3.0296130180358887
            ],
            "min" : [
                -1.446784496307373,
                -1.0645709037780762,
                0.6523166298866272
            ],
            "type" : "VEC3"
        },
        {
            "bufferView" : 13,
            "componentType" : 5126,
            "count" : 2696,
            "type" : "VEC3"
        },
        {
            "bufferView" : 14,
            "componentType" : 5126,
            "count" : 2696,
            "type" : "VEC2"
        },
        {
            "bufferView" : 15,
            "componentType" : 5123,
            "count" : 3432,
            "type" : "SCALAR"
        },
        {
            "bufferView" : 16,
            "componentType" : 5126,
            "count" : 1760,
            "max" : [
                2.986534833908081,
                0.8142735958099365,
                3.852141857147217
            ],
            "min" : [
                -2.5103306770324707,
                -0.9981831312179565,
                -2.044858932495117
            ],
            "type" : "VEC3"
        },
        {
            "bufferView" : 17,
            "componentType" : 5126,
            "count" : 1760,
            "type" : "VEC3"
        },
        {
            "bufferView" : 18,
            "componentType" : 5126,
            "count" : 1760,
            "type" : "VEC2"
        },
        {
            "bufferView" : 19,
            "componentType" : 5123,
            "count" : 2640,
            "type" : "SCALAR"
        },
        {
            "bufferView" : 20,
            "componentType" : 5126,
            "count" : 440,
            "max" : [
                -1.1908800601959229,
                2.0924417972564697,
                -1.0192795991897583
            ],
            "min" : [
                -2.4083847999572754,
                -0.9056535959243774,
                -4.687783718109131
            ],
            "type" : "VEC3"
        },
        {
            "bufferView" : 21,
            "componentType" : 5126,
            "count" : 440,
            "type" : "VEC3"
        },
        {
            "bufferView" : 22,
            "componentType" : 5126,
            "count" : 440,
            "type" : "VEC2"
        },
        {
            "bufferView" : 23,
            "componentType" : 5123,
            "count" : 528,
            "type" : "SCALAR"
        },
        {
            "bufferView" : 24,
            "componentType" : 5126,
            "count" : 196,
            "max" : [
                2.160438060760498,
                4.474303245544434,
                0.9546176195144653
            ],
            "min" : [
                -1.5950112342834473,
                -1.007741928100586,
                -1.0711591243743896
            ],
            "type" : "VEC3"
        },
        {
            "bufferView" : 25,
            "componentType" : 5126,
            "count" : 196,
            "type" : "VEC3"
        },
        {
            "bufferView" : 26,
            "componentType" : 5126,
            "count" : 196,
            "type" : "VEC2"
        },
        {
            "bufferView" : 27,
            "componentType" : 5123,
            "count" : 324,
            "type" : "SCALAR"
        },
        {
            "bufferView" : 28,
            "componentType" : 5126,
            "count" : 2,
            "max" : [
                1
            ],
            "min" : [
                0.9583333333333334
            ],
            "type" : "SCALAR"
        },
        {
            "bufferView" : 29,
            "componentType" : 5126,
            "count" : 2,
            "type" : "VEC3"
        },
        {
            "bufferView" : 30,
            "componentType" : 5126,
            "count" : 2,
            "type" : "VEC4"
        },
        {
            "bufferView" : 31,
            "componentType" : 5126,
            "count" : 2,
            "type" : "VEC3"
        }
    ],
    "bufferViews" : [
        {
            "buffer" : 0,
            "byteLength" : 304572,
            "byteOffset" : 0,
            "target" : 34962
        },
        {
            "buffer" : 0,
            "byteLength" : 304572,
            "byteOffset" : 304572,
            "target" : 34962
        },
        {
            "buffer" : 0,
            "byteLength" : 203048,
            "byteOffset" : 609144,
            "target" : 34962
        },
        {
            "buffer" : 0,
            "byteLength" : 152334,
            "byteOffset" : 812192,
            "target" : 34963
        },
        {
            "buffer" : 0,
            "byteLength" : 1642152,
            "byteOffset" : 964528,
            "target" : 34962
        },
        {
            "buffer" : 0,
            "byteLength" : 1642152,
            "byteOffset" : 2606680,
            "target" : 34962
        },
        {
            "buffer" : 0,
            "byteLength" : 1094768,
            "byteOffset" : 4248832,
            "target" : 34962
        },
        {
            "buffer" : 0,
            "byteLength" : 1347576,
            "byteOffset" : 5343600,
            "target" : 34963
        },
        {
            "buffer" : 0,
            "byteLength" : 21120,
            "byteOffset" : 6691176,
            "target" : 34962
        },
        {
            "buffer" : 0,
            "byteLength" : 21120,
            "byteOffset" : 6712296,
            "target" : 34962
        },
        {
            "buffer" : 0,
            "byteLength" : 14080,
            "byteOffset" : 6733416,
            "target" : 34962
        },
        {
            "buffer" : 0,
            "byteLength" : 5280,
            "byteOffset" : 6747496,
            "target" : 34963
        },
        {
            "buffer" : 0,
            "byteLength" : 32352,
            "byteOffset" : 6752776,
            "target" : 34962
        },
        {
            "buffer" : 0,
            "byteLength" : 32352,
            "byteOffset" : 6785128,
            "target" : 34962
        },
        {
            "buffer" : 0,
            "byteLength" : 21568,
            "byteOffset" : 6817480,
            "target" : 34962
        },
        {
            "buffer" : 0,
            "byteLength" : 6864,
            "byteOffset" : 6839048,
            "target" : 34963
        },
        {
            "buffer" : 0,
            "byteLength" : 21120,
            "byteOffset" : 6845912,
            "target" : 34962
        },
        {
            "buffer" : 0,
            "byteLength" : 21120,
            "byteOffset" : 6867032,
            "target" : 34962
        },
        {
            "buffer" : 0,
            "byteLength" : 14080,
            "byteOffset" : 6888152,
            "target" : 34962
        },
        {
            "buffer" : 0,
            "byteLength" : 5280,
            "byteOffset" : 6902232,
            "target" : 34963
        },
        {
            "buffer" : 0,
            "byteLength" : 5280,
            "byteOffset" : 6907512,
            "target" : 34962
        },
        {
            "buffer" : 0,
            "byteLength" : 5280,
            "byteOffset" : 6912792,
            "target" : 34962
        },
        {
            "buffer" : 0,
            "byteLength" : 3520,
            "byteOffset" : 6918072,
            "target" : 34962
        },
        {
            "buffer" : 0,
            "byteLength" : 1056,
            "byteOffset" : 6921592,
            "target" : 34963
        },
        {
            "buffer" : 0,
            "byteLength" : 2352,
            "byteOffset" : 6922648,
            "target" : 34962
        },
        {
            "buffer" : 0,
            "byteLength" : 2352,
            "byteOffset" : 6925000,
            "target" : 34962
        },
        {
            "buffer" : 0,
            "byteLength" : 1568,
            "byteOffset" : 6927352,
            "target" : 34962
        },
        {
            "buffer" : 0,
            "byteLength" : 648,
            "byteOffset" : 6928920,
            "target" : 34963
        },
        {
            "buffer" : 0,
            "byteLength" : 8,
            "byteOffset" : 6929568
        },
        {
            "buffer" : 0,
            "byteLength" : 24,
            "byteOffset" : 6929576
        },
        {
            "buffer" : 0,
            "byteLength" : 32,
            "byteOffset" : 6929600
        },
        {
            "buffer" : 0,
            "byteLength" : 24,
            "byteOffset" : 6929632
        }
    ],
    "buffers" : [
        {
            "byteLength" : 6929656,
            "uri" : "mono3.bin"
        }
    ]
}
