{
    "asset" : {
        "generator" : "Khronos glTF Blender I/O v3.3.32",
        "version" : "2.0"
    },
    "scene" : 0,
    "scenes" : [
        {
            "name" : "Scene",
            "nodes" : [
                0,
                1
            ]
        }
    ],
    "nodes" : [
        {
            "mesh" : 0,
            "name" : "mono4",
            "rotation" : [
                0,
                -0.15281789004802704,
                0,
                0.9882543683052063
            ],
            "scale" : [
                1.5923901796340942,
                1.0072417259216309,
                0.4638916850090027
            ],
            "translation" : [
                24.89740562438965,
                1.013074278831482,
                0.3951500654220581
            ]
        },
        {
            "mesh" : 1,
            "name" : "signPost",
            "rotation" : [
                -0.3652377724647522,
                0.3652377426624298,
                -0.6054762005805969,
                0.6054762005805969
            ],
            "scale" : [
                1.021637201309204,
                0.07564643025398254,
                0.07564643025398254
            ],
            "translation" : [
                28.542295455932617,
                2.0489039421081543,
                2.5757932662963867
            ]
        }
    ],
    "animations" : [
        {
            "channels" : [
                {
                    "sampler" : 0,
                    "target" : {
                        "node" : 0,
                        "path" : "translation"
                    }
                },
                {
                    "sampler" : 1,
                    "target" : {
                        "node" : 0,
                        "path" : "rotation"
                    }
                },
                {
                    "sampler" : 2,
                    "target" : {
                        "node" : 0,
                        "path" : "scale"
                    }
                }
            ],
            "name" : "mono4",
            "samplers" : [
                {
                    "input" : 32,
                    "interpolation" : "LINEAR",
                    "output" : 33
                },
                {
                    "input" : 32,
                    "interpolation" : "LINEAR",
                    "output" : 34
                },
                {
                    "input" : 32,
                    "interpolation" : "LINEAR",
                    "output" : 35
                }
            ]
        },
        {
            "channels" : [
                {
                    "sampler" : 0,
                    "target" : {
                        "node" : 1,
                        "path" : "translation"
                    }
                },
                {
                    "sampler" : 1,
                    "target" : {
                        "node" : 1,
                        "path" : "rotation"
                    }
                },
                {
                    "sampler" : 2,
                    "target" : {
                        "node" : 1,
                        "path" : "scale"
                    }
                }
            ],
            "name" : "signPost",
            "samplers" : [
                {
                    "input" : 32,
                    "interpolation" : "LINEAR",
                    "output" : 36
                },
                {
                    "input" : 32,
                    "interpolation" : "LINEAR",
                    "output" : 37
                },
                {
                    "input" : 32,
                    "interpolation" : "LINEAR",
                    "output" : 38
                }
            ]
        }
    ],
    "materials" : [
        {
            "doubleSided" : true,
            "name" : "stone light.005",
            "pbrMetallicRoughness" : {
                "baseColorFactor" : [
                    0.12148302048444748,
                    0.0925261378288269,
                    0.05395966023206711,
                    1
                ],
                "metallicFactor" : 0,
                "roughnessFactor" : 0.5
            }
        },
        {
            "doubleSided" : true,
            "name" : "stone dark.007",
            "pbrMetallicRoughness" : {
                "baseColorFactor" : [
                    0.04569915309548378,
                    0.03320207819342613,
                    0.02093132957816124,
                    1
                ],
                "metallicFactor" : 0,
                "roughnessFactor" : 0.5
            }
        },
        {
            "doubleSided" : true,
            "name" : "stone med.005",
            "pbrMetallicRoughness" : {
                "baseColorFactor" : [
                    0.0782862976193428,
                    0.05728227645158768,
                    0.031089307740330696,
                    1
                ],
                "metallicFactor" : 0,
                "roughnessFactor" : 0.5
            }
        },
        {
            "doubleSided" : true,
            "name" : "new green xdark.002",
            "pbrMetallicRoughness" : {
                "baseColorFactor" : [
                    0.01913481578230858,
                    0.03853574022650719,
                    0.014118634164333344,
                    1
                ],
                "metallicFactor" : 0,
                "roughnessFactor" : 0.5
            }
        },
        {
            "doubleSided" : true,
            "name" : "new green dark.004",
            "pbrMetallicRoughness" : {
                "baseColorFactor" : [
                    0.03990150988101959,
                    0.0965551882982254,
                    0.05854443833231926,
                    1
                ],
                "metallicFactor" : 0,
                "roughnessFactor" : 0.5
            }
        },
        {
            "doubleSided" : true,
            "name" : "new green med.006",
            "pbrMetallicRoughness" : {
                "baseColorFactor" : [
                    0.08300872147083282,
                    0.18446806073188782,
                    0.058145444840192795,
                    1
                ],
                "metallicFactor" : 0,
                "roughnessFactor" : 0.5
            }
        },
        {
            "doubleSided" : true,
            "name" : "Material.002",
            "pbrMetallicRoughness" : {
                "baseColorFactor" : [
                    0,
                    0,
                    0,
                    1
                ],
                "metallicFactor" : 0,
                "roughnessFactor" : 0.5
            }
        }
    ],
    "meshes" : [
        {
            "name" : "Cube.004",
            "primitives" : [
                {
                    "attributes" : {
                        "POSITION" : 0,
                        "NORMAL" : 1,
                        "TEXCOORD_0" : 2
                    },
                    "indices" : 3,
                    "material" : 0
                },
                {
                    "attributes" : {
                        "POSITION" : 4,
                        "NORMAL" : 5,
                        "TEXCOORD_0" : 6
                    },
                    "indices" : 7,
                    "material" : 1
                },
                {
                    "attributes" : {
                        "POSITION" : 8,
                        "NORMAL" : 9,
                        "TEXCOORD_0" : 10
                    },
                    "indices" : 11,
                    "material" : 2
                },
                {
                    "attributes" : {
                        "POSITION" : 12,
                        "NORMAL" : 13,
                        "TEXCOORD_0" : 14
                    },
                    "indices" : 15,
                    "material" : 3
                },
                {
                    "attributes" : {
                        "POSITION" : 16,
                        "NORMAL" : 17,
                        "TEXCOORD_0" : 18
                    },
                    "indices" : 19,
                    "material" : 4
                },
                {
                    "attributes" : {
                        "POSITION" : 20,
                        "NORMAL" : 21,
                        "TEXCOORD_0" : 22
                    },
                    "indices" : 23,
                    "material" : 5
                }
            ]
        },
        {
            "name" : "Cube.005",
            "primitives" : [
                {
                    "attributes" : {
                        "POSITION" : 24,
                        "NORMAL" : 25,
                        "TEXCOORD_0" : 26
                    },
                    "indices" : 27,
                    "material" : 1
                },
                {
                    "attributes" : {
                        "POSITION" : 28,
                        "NORMAL" : 29,
                        "TEXCOORD_0" : 30
                    },
                    "indices" : 31,
                    "material" : 6
                }
            ]
        }
    ],
    "accessors" : [
        {
            "bufferView" : 0,
            "componentType" : 5126,
            "count" : 197,
            "max" : [
                1.8700101375579834,
                4.109946250915527,
                1.053087592124939
            ],
            "min" : [
                -1.4439724683761597,
                -1,
                -1
            ],
            "type" : "VEC3"
        },
        {
            "bufferView" : 1,
            "componentType" : 5126,
            "count" : 197,
            "type" : "VEC3"
        },
        {
            "bufferView" : 2,
            "componentType" : 5126,
            "count" : 197,
            "type" : "VEC2"
        },
        {
            "bufferView" : 3,
            "componentType" : 5123,
            "count" : 342,
            "type" : "SCALAR"
        },
        {
            "bufferView" : 4,
            "componentType" : 5126,
            "count" : 1261907,
            "max" : [
                2.299024820327759,
                4.34774112701416,
                1.0957448482513428
            ],
            "min" : [
                -1.5950112342834473,
                -0.9968929886817932,
                -0.803826093673706
            ],
            "type" : "VEC3"
        },
        {
            "bufferView" : 5,
            "componentType" : 5126,
            "count" : 1261907,
            "type" : "VEC3"
        },
        {
            "bufferView" : 6,
            "componentType" : 5126,
            "count" : 1261907,
            "type" : "VEC2"
        },
        {
            "bufferView" : 7,
            "componentType" : 5125,
            "count" : 5272224,
            "type" : "SCALAR"
        },
        {
            "bufferView" : 8,
            "componentType" : 5126,
            "count" : 118,
            "max" : [
                2.1604397296905518,
                4.474303245544434,
                0.9546178579330444
            ],
            "min" : [
                -0.535355806350708,
                -1.0077420473098755,
                -1.0711592435836792
            ],
            "type" : "VEC3"
        },
        {
            "bufferView" : 9,
            "componentType" : 5126,
            "count" : 118,
            "type" : "VEC3"
        },
        {
            "bufferView" : 10,
            "componentType" : 5126,
            "count" : 118,
            "type" : "VEC2"
        },
        {
            "bufferView" : 11,
            "componentType" : 5123,
            "count" : 192,
            "type" : "SCALAR"
        },
        {
            "bufferView" : 12,
            "componentType" : 5126,
            "count" : 9696,
            "max" : [
                3.561180591583252,
                0.22143161296844482,
                4.442391872406006
            ],
            "min" : [
                -2.464752197265625,
                -0.8892027139663696,
                -1.4864689111709595
            ],
            "type" : "VEC3"
        },
        {
            "bufferView" : 13,
            "componentType" : 5126,
            "count" : 9696,
            "type" : "VEC3"
        },
        {
            "bufferView" : 14,
            "componentType" : 5126,
            "count" : 9696,
            "type" : "VEC2"
        },
        {
            "bufferView" : 15,
            "componentType" : 5123,
            "count" : 14544,
            "type" : "SCALAR"
        },
        {
            "bufferView" : 16,
            "componentType" : 5126,
            "count" : 10432,
            "max" : [
                3.6403627395629883,
                2.577314853668213,
                4.469365119934082
            ],
            "min" : [
                -2.5777292251586914,
                -1.0116218328475952,
                -2.1181640625
            ],
            "type" : "VEC3"
        },
        {
            "bufferView" : 17,
            "componentType" : 5126,
            "count" : 10432,
            "type" : "VEC3"
        },
        {
            "bufferView" : 18,
            "componentType" : 5126,
            "count" : 10432,
            "type" : "VEC2"
        },
        {
            "bufferView" : 19,
            "componentType" : 5123,
            "count" : 15648,
            "type" : "SCALAR"
        },
        {
            "bufferView" : 20,
            "componentType" : 5126,
            "count" : 2640,
            "max" : [
                2.824960708618164,
                1.5189054012298584,
                4.611032009124756
            ],
            "min" : [
                -2.760011672973633,
                -1.054794430732727,
                -7.608423233032227
            ],
            "type" : "VEC3"
        },
        {
            "bufferView" : 21,
            "componentType" : 5126,
            "count" : 2640,
            "type" : "VEC3"
        },
        {
            "bufferView" : 22,
            "componentType" : 5126,
            "count" : 2640,
            "type" : "VEC2"
        },
        {
            "bufferView" : 23,
            "componentType" : 5123,
            "count" : 3960,
            "type" : "SCALAR"
        },
        {
            "bufferView" : 24,
            "componentType" : 5126,
            "count" : 990,
            "max" : [
                1.9999970197677612,
                1.9939391613006592,
                12.421679496765137
            ],
            "min" : [
                -0.06952470541000366,
                -0.9496714472770691,
                -12.42631721496582
            ],
            "type" : "VEC3"
        },
        {
            "bufferView" : 25,
            "componentType" : 5126,
            "count" : 990,
            "type" : "VEC3"
        },
        {
            "bufferView" : 26,
            "componentType" : 5126,
            "count" : 990,
            "type" : "VEC2"
        },
        {
            "bufferView" : 27,
            "componentType" : 5123,
            "count" : 1536,
            "type" : "SCALAR"
        },
        {
            "bufferView" : 28,
            "componentType" : 5126,
            "count" : 30210,
            "max" : [
                0.5829955339431763,
                -0.4161432087421417,
                8.348268508911133
            ],
            "min" : [
                0.10797114670276642,
                -0.9601041078567505,
                -8.110106468200684
            ],
            "type" : "VEC3"
        },
        {
            "bufferView" : 29,
            "componentType" : 5126,
            "count" : 30210,
            "type" : "VEC3"
        },
        {
            "bufferView" : 30,
            "componentType" : 5126,
            "count" : 30210,
            "type" : "VEC2"
        },
        {
            "bufferView" : 31,
            "componentType" : 5123,
            "count" : 119772,
            "type" : "SCALAR"
        },
        {
            "bufferView" : 32,
            "componentType" : 5126,
            "count" : 2,
            "max" : [
                1
            ],
            "min" : [
                0.9583333333333334
            ],
            "type" : "SCALAR"
        },
        {
            "bufferView" : 33,
            "componentType" : 5126,
            "count" : 2,
            "type" : "VEC3"
        },
        {
            "bufferView" : 34,
            "componentType" : 5126,
            "count" : 2,
            "type" : "VEC4"
        },
        {
            "bufferView" : 35,
            "componentType" : 5126,
            "count" : 2,
            "type" : "VEC3"
        },
        {
            "bufferView" : 36,
            "componentType" : 5126,
            "count" : 2,
            "type" : "VEC3"
        },
        {
            "bufferView" : 37,
            "componentType" : 5126,
            "count" : 2,
            "type" : "VEC4"
        },
        {
            "bufferView" : 38,
            "componentType" : 5126,
            "count" : 2,
            "type" : "VEC3"
        }
    ],
    "bufferViews" : [
        {
            "buffer" : 0,
            "byteLength" : 2364,
            "byteOffset" : 0,
            "target" : 34962
        },
        {
            "buffer" : 0,
            "byteLength" : 2364,
            "byteOffset" : 2364,
            "target" : 34962
        },
        {
            "buffer" : 0,
            "byteLength" : 1576,
            "byteOffset" : 4728,
            "target" : 34962
        },
        {
            "buffer" : 0,
            "byteLength" : 684,
            "byteOffset" : 6304,
            "target" : 34963
        },
        {
            "buffer" : 0,
            "byteLength" : 15142884,
            "byteOffset" : 6988,
            "target" : 34962
        },
        {
            "buffer" : 0,
            "byteLength" : 15142884,
            "byteOffset" : 15149872,
            "target" : 34962
        },
        {
            "buffer" : 0,
            "byteLength" : 10095256,
            "byteOffset" : 30292756,
            "target" : 34962
        },
        {
            "buffer" : 0,
            "byteLength" : 21088896,
            "byteOffset" : 40388012,
            "target" : 34963
        },
        {
            "buffer" : 0,
            "byteLength" : 1416,
            "byteOffset" : 61476908,
            "target" : 34962
        },
        {
            "buffer" : 0,
            "byteLength" : 1416,
            "byteOffset" : 61478324,
            "target" : 34962
        },
        {
            "buffer" : 0,
            "byteLength" : 944,
            "byteOffset" : 61479740,
            "target" : 34962
        },
        {
            "buffer" : 0,
            "byteLength" : 384,
            "byteOffset" : 61480684,
            "target" : 34963
        },
        {
            "buffer" : 0,
            "byteLength" : 116352,
            "byteOffset" : 61481068,
            "target" : 34962
        },
        {
            "buffer" : 0,
            "byteLength" : 116352,
            "byteOffset" : 61597420,
            "target" : 34962
        },
        {
            "buffer" : 0,
            "byteLength" : 77568,
            "byteOffset" : 61713772,
            "target" : 34962
        },
        {
            "buffer" : 0,
            "byteLength" : 29088,
            "byteOffset" : 61791340,
            "target" : 34963
        },
        {
            "buffer" : 0,
            "byteLength" : 125184,
            "byteOffset" : 61820428,
            "target" : 34962
        },
        {
            "buffer" : 0,
            "byteLength" : 125184,
            "byteOffset" : 61945612,
            "target" : 34962
        },
        {
            "buffer" : 0,
            "byteLength" : 83456,
            "byteOffset" : 62070796,
            "target" : 34962
        },
        {
            "buffer" : 0,
            "byteLength" : 31296,
            "byteOffset" : 62154252,
            "target" : 34963
        },
        {
            "buffer" : 0,
            "byteLength" : 31680,
            "byteOffset" : 62185548,
            "target" : 34962
        },
        {
            "buffer" : 0,
            "byteLength" : 31680,
            "byteOffset" : 62217228,
            "target" : 34962
        },
        {
            "buffer" : 0,
            "byteLength" : 21120,
            "byteOffset" : 62248908,
            "target" : 34962
        },
        {
            "buffer" : 0,
            "byteLength" : 7920,
            "byteOffset" : 62270028,
            "target" : 34963
        },
        {
            "buffer" : 0,
            "byteLength" : 11880,
            "byteOffset" : 62277948,
            "target" : 34962
        },
        {
            "buffer" : 0,
            "byteLength" : 11880,
            "byteOffset" : 62289828,
            "target" : 34962
        },
        {
            "buffer" : 0,
            "byteLength" : 7920,
            "byteOffset" : 62301708,
            "target" : 34962
        },
        {
            "buffer" : 0,
            "byteLength" : 3072,
            "byteOffset" : 62309628,
            "target" : 34963
        },
        {
            "buffer" : 0,
            "byteLength" : 362520,
            "byteOffset" : 62312700,
            "target" : 34962
        },
        {
            "buffer" : 0,
            "byteLength" : 362520,
            "byteOffset" : 62675220,
            "target" : 34962
        },
        {
            "buffer" : 0,
            "byteLength" : 241680,
            "byteOffset" : 63037740,
            "target" : 34962
        },
        {
            "buffer" : 0,
            "byteLength" : 239544,
            "byteOffset" : 63279420,
            "target" : 34963
        },
        {
            "buffer" : 0,
            "byteLength" : 8,
            "byteOffset" : 63518964
        },
        {
            "buffer" : 0,
            "byteLength" : 24,
            "byteOffset" : 63518972
        },
        {
            "buffer" : 0,
            "byteLength" : 32,
            "byteOffset" : 63518996
        },
        {
            "buffer" : 0,
            "byteLength" : 24,
            "byteOffset" : 63519028
        },
        {
            "buffer" : 0,
            "byteLength" : 24,
            "byteOffset" : 63519052
        },
        {
            "buffer" : 0,
            "byteLength" : 32,
            "byteOffset" : 63519076
        },
        {
            "buffer" : 0,
            "byteLength" : 24,
            "byteOffset" : 63519108
        }
    ],
    "buffers" : [
        {
            "byteLength" : 63519132,
            "uri" : "monoliths4.bin"
        }
    ]
}
