{
    "asset" : {
        "generator" : "Khronos glTF Blender I/O v3.3.32",
        "version" : "2.0"
    },
    "scene" : 0,
    "scenes" : [
        {
            "name" : "Scene",
            "nodes" : [
                0,
                1
            ]
        }
    ],
    "nodes" : [
        {
            "mesh" : 0,
            "name" : "Cube.025",
            "scale" : [
                1.1042462587356567,
                0.8118323683738708,
                0.3820364475250244
            ],
            "translation" : [
                -0.1476762294769287,
                1.8459645509719849,
                0.34145689010620117
            ]
        },
        {
            "mesh" : 1,
            "name" : "Text.002",
            "rotation" : [
                0.7071068286895752,
                0,
                0,
                0.7071068286895752
            ],
            "scale" : [
                0.13162386417388916,
                0.13162386417388916,
                0.13162386417388916
            ],
            "translation" : [
                -0.15964829921722412,
                2.877224922180176,
                0.36075150966644287
            ]
        }
    ],
    "animations" : [
        {
            "channels" : [
                {
                    "sampler" : 0,
                    "target" : {
                        "node" : 0,
                        "path" : "translation"
                    }
                },
                {
                    "sampler" : 1,
                    "target" : {
                        "node" : 0,
                        "path" : "rotation"
                    }
                },
                {
                    "sampler" : 2,
                    "target" : {
                        "node" : 0,
                        "path" : "scale"
                    }
                }
            ],
            "name" : "Cube.025",
            "samplers" : [
                {
                    "input" : 32,
                    "interpolation" : "LINEAR",
                    "output" : 33
                },
                {
                    "input" : 32,
                    "interpolation" : "LINEAR",
                    "output" : 34
                },
                {
                    "input" : 32,
                    "interpolation" : "LINEAR",
                    "output" : 35
                }
            ]
        },
        {
            "channels" : [
                {
                    "sampler" : 0,
                    "target" : {
                        "node" : 1,
                        "path" : "translation"
                    }
                },
                {
                    "sampler" : 1,
                    "target" : {
                        "node" : 1,
                        "path" : "rotation"
                    }
                },
                {
                    "sampler" : 2,
                    "target" : {
                        "node" : 1,
                        "path" : "scale"
                    }
                }
            ],
            "name" : "Text.002",
            "samplers" : [
                {
                    "input" : 32,
                    "interpolation" : "LINEAR",
                    "output" : 36
                },
                {
                    "input" : 32,
                    "interpolation" : "LINEAR",
                    "output" : 37
                },
                {
                    "input" : 32,
                    "interpolation" : "LINEAR",
                    "output" : 38
                }
            ]
        }
    ],
    "materials" : [
        {
            "doubleSided" : true,
            "name" : "stone light",
            "pbrMetallicRoughness" : {
                "baseColorFactor" : [
                    0.12148302048444748,
                    0.0925261378288269,
                    0.05395966023206711,
                    1
                ],
                "metallicFactor" : 0,
                "roughnessFactor" : 0.5
            }
        },
        {
            "doubleSided" : true,
            "name" : "stone dark",
            "pbrMetallicRoughness" : {
                "baseColorFactor" : [
                    0.04569915309548378,
                    0.03320207819342613,
                    0.02093132957816124,
                    1
                ],
                "metallicFactor" : 0,
                "roughnessFactor" : 0.5
            }
        },
        {
            "doubleSided" : true,
            "name" : "stone med",
            "pbrMetallicRoughness" : {
                "baseColorFactor" : [
                    0.0782862976193428,
                    0.05728227645158768,
                    0.031089307740330696,
                    1
                ],
                "metallicFactor" : 0,
                "roughnessFactor" : 0.5
            }
        },
        {
            "doubleSided" : true,
            "name" : "new green med/dark",
            "pbrMetallicRoughness" : {
                "baseColorFactor" : [
                    0.0466822013258934,
                    0.1004791259765625,
                    0.033287543803453445,
                    1
                ],
                "metallicFactor" : 0,
                "roughnessFactor" : 0.5
            }
        },
        {
            "doubleSided" : true,
            "name" : "new purple",
            "pbrMetallicRoughness" : {
                "baseColorFactor" : [
                    0.09083940833806992,
                    0.05729494243860245,
                    0.08982118964195251,
                    1
                ],
                "metallicFactor" : 0,
                "roughnessFactor" : 0.5
            }
        },
        {
            "doubleSided" : true,
            "name" : "new green med",
            "pbrMetallicRoughness" : {
                "baseColorFactor" : [
                    0.08300872147083282,
                    0.18446806073188782,
                    0.058145444840192795,
                    1
                ],
                "metallicFactor" : 0,
                "roughnessFactor" : 0.5
            }
        },
        {
            "doubleSided" : true,
            "name" : "new green dark",
            "pbrMetallicRoughness" : {
                "baseColorFactor" : [
                    0.03990150988101959,
                    0.0965551882982254,
                    0.05854443833231926,
                    1
                ],
                "metallicFactor" : 0,
                "roughnessFactor" : 0.5
            }
        },
        {
            "doubleSided" : true,
            "name" : "stone dark.001",
            "pbrMetallicRoughness" : {
                "baseColorFactor" : [
                    0.04569915309548378,
                    0.03320207819342613,
                    0.02093132957816124,
                    1
                ],
                "metallicFactor" : 0,
                "roughnessFactor" : 0.5
            }
        }
    ],
    "meshes" : [
        {
            "name" : "Cube.026",
            "primitives" : [
                {
                    "attributes" : {
                        "POSITION" : 0,
                        "NORMAL" : 1,
                        "TEXCOORD_0" : 2
                    },
                    "indices" : 3,
                    "material" : 0
                },
                {
                    "attributes" : {
                        "POSITION" : 4,
                        "NORMAL" : 5,
                        "TEXCOORD_0" : 6
                    },
                    "indices" : 7,
                    "material" : 1
                },
                {
                    "attributes" : {
                        "POSITION" : 8,
                        "NORMAL" : 9,
                        "TEXCOORD_0" : 10
                    },
                    "indices" : 11,
                    "material" : 2
                },
                {
                    "attributes" : {
                        "POSITION" : 12,
                        "NORMAL" : 13,
                        "TEXCOORD_0" : 14
                    },
                    "indices" : 15,
                    "material" : 3
                },
                {
                    "attributes" : {
                        "POSITION" : 16,
                        "NORMAL" : 17,
                        "TEXCOORD_0" : 18
                    },
                    "indices" : 19,
                    "material" : 4
                },
                {
                    "attributes" : {
                        "POSITION" : 20,
                        "NORMAL" : 21,
                        "TEXCOORD_0" : 22
                    },
                    "indices" : 23,
                    "material" : 5
                },
                {
                    "attributes" : {
                        "POSITION" : 24,
                        "NORMAL" : 25,
                        "TEXCOORD_0" : 26
                    },
                    "indices" : 27,
                    "material" : 6
                }
            ]
        },
        {
            "name" : "Text.002",
            "primitives" : [
                {
                    "attributes" : {
                        "POSITION" : 28,
                        "NORMAL" : 29,
                        "TEXCOORD_0" : 30
                    },
                    "indices" : 31,
                    "material" : 7
                }
            ]
        }
    ],
    "accessors" : [
        {
            "bufferView" : 0,
            "componentType" : 5126,
            "count" : 3733,
            "max" : [
                2.828066825866699,
                4.027068138122559,
                0.5867342948913574
            ],
            "min" : [
                -2.4806456565856934,
                -2.2672688961029053,
                -2.4353065490722656
            ],
            "type" : "VEC3"
        },
        {
            "bufferView" : 1,
            "componentType" : 5126,
            "count" : 3733,
            "type" : "VEC3"
        },
        {
            "bufferView" : 2,
            "componentType" : 5126,
            "count" : 3733,
            "type" : "VEC2"
        },
        {
            "bufferView" : 3,
            "componentType" : 5123,
            "count" : 5640,
            "type" : "SCALAR"
        },
        {
            "bufferView" : 4,
            "componentType" : 5126,
            "count" : 45328,
            "max" : [
                2.7693276405334473,
                3.7307798862457275,
                0.7482266426086426
            ],
            "min" : [
                -2.5040102005004883,
                -2.2593495845794678,
                -2.4353065490722656
            ],
            "type" : "VEC3"
        },
        {
            "bufferView" : 5,
            "componentType" : 5126,
            "count" : 45328,
            "type" : "VEC3"
        },
        {
            "bufferView" : 6,
            "componentType" : 5126,
            "count" : 45328,
            "type" : "VEC2"
        },
        {
            "bufferView" : 7,
            "componentType" : 5123,
            "count" : 165636,
            "type" : "SCALAR"
        },
        {
            "bufferView" : 8,
            "componentType" : 5126,
            "count" : 8386,
            "max" : [
                2.92813777923584,
                3.488909959793091,
                0.8271322250366211
            ],
            "min" : [
                -2.5040102005004883,
                -2.2593495845794678,
                -2.3756237030029297
            ],
            "type" : "VEC3"
        },
        {
            "bufferView" : 9,
            "componentType" : 5126,
            "count" : 8386,
            "type" : "VEC3"
        },
        {
            "bufferView" : 10,
            "componentType" : 5126,
            "count" : 8386,
            "type" : "VEC2"
        },
        {
            "bufferView" : 11,
            "componentType" : 5123,
            "count" : 12573,
            "type" : "SCALAR"
        },
        {
            "bufferView" : 12,
            "componentType" : 5126,
            "count" : 1259,
            "max" : [
                3.0128231048583984,
                3.546941041946411,
                0.24753010272979736
            ],
            "min" : [
                -2.5040102005004883,
                -0.276434063911438,
                -2.4353065490722656
            ],
            "type" : "VEC3"
        },
        {
            "bufferView" : 13,
            "componentType" : 5126,
            "count" : 1259,
            "type" : "VEC3"
        },
        {
            "bufferView" : 14,
            "componentType" : 5126,
            "count" : 1259,
            "type" : "VEC2"
        },
        {
            "bufferView" : 15,
            "componentType" : 5123,
            "count" : 1863,
            "type" : "SCALAR"
        },
        {
            "bufferView" : 16,
            "componentType" : 5126,
            "count" : 1584,
            "max" : [
                3.7640466690063477,
                2.263028860092163,
                1.8438472747802734
            ],
            "min" : [
                -3.145057439804077,
                -2.236654758453369,
                -4.464975357055664
            ],
            "type" : "VEC3"
        },
        {
            "bufferView" : 17,
            "componentType" : 5126,
            "count" : 1584,
            "type" : "VEC3"
        },
        {
            "bufferView" : 18,
            "componentType" : 5126,
            "count" : 1584,
            "type" : "VEC2"
        },
        {
            "bufferView" : 19,
            "componentType" : 5123,
            "count" : 2352,
            "type" : "SCALAR"
        },
        {
            "bufferView" : 20,
            "componentType" : 5126,
            "count" : 3836,
            "max" : [
                3.3782758712768555,
                3.106741189956665,
                2.475728750228882
            ],
            "min" : [
                -3.320146322250366,
                -2.308197259902954,
                -1.9901303052902222
            ],
            "type" : "VEC3"
        },
        {
            "bufferView" : 21,
            "componentType" : 5126,
            "count" : 3836,
            "type" : "VEC3"
        },
        {
            "bufferView" : 22,
            "componentType" : 5126,
            "count" : 3836,
            "type" : "VEC2"
        },
        {
            "bufferView" : 23,
            "componentType" : 5123,
            "count" : 5712,
            "type" : "SCALAR"
        },
        {
            "bufferView" : 24,
            "componentType" : 5126,
            "count" : 9160,
            "max" : [
                2.8468031883239746,
                4.106756210327148,
                1.5238118171691895
            ],
            "min" : [
                -2.7122244834899902,
                -2.3390016555786133,
                -2.683999538421631
            ],
            "type" : "VEC3"
        },
        {
            "bufferView" : 25,
            "componentType" : 5126,
            "count" : 9160,
            "type" : "VEC3"
        },
        {
            "bufferView" : 26,
            "componentType" : 5126,
            "count" : 9160,
            "type" : "VEC2"
        },
        {
            "bufferView" : 27,
            "componentType" : 5123,
            "count" : 13998,
            "type" : "SCALAR"
        },
        {
            "bufferView" : 28,
            "componentType" : 5126,
            "count" : 308158,
            "max" : [
                14.440522193908691,
                0.15000000596046448,
                2.506016969680786
            ],
            "min" : [
                -14.440505027770996,
                -0.15000000596046448,
                -2.5060172080993652
            ],
            "type" : "VEC3"
        },
        {
            "bufferView" : 29,
            "componentType" : 5126,
            "count" : 308158,
            "type" : "VEC3"
        },
        {
            "bufferView" : 30,
            "componentType" : 5126,
            "count" : 308158,
            "type" : "VEC2"
        },
        {
            "bufferView" : 31,
            "componentType" : 5125,
            "count" : 1329324,
            "type" : "SCALAR"
        },
        {
            "bufferView" : 32,
            "componentType" : 5126,
            "count" : 2,
            "max" : [
                1
            ],
            "min" : [
                0.9583333333333334
            ],
            "type" : "SCALAR"
        },
        {
            "bufferView" : 33,
            "componentType" : 5126,
            "count" : 2,
            "type" : "VEC3"
        },
        {
            "bufferView" : 34,
            "componentType" : 5126,
            "count" : 2,
            "type" : "VEC4"
        },
        {
            "bufferView" : 35,
            "componentType" : 5126,
            "count" : 2,
            "type" : "VEC3"
        },
        {
            "bufferView" : 36,
            "componentType" : 5126,
            "count" : 2,
            "type" : "VEC3"
        },
        {
            "bufferView" : 37,
            "componentType" : 5126,
            "count" : 2,
            "type" : "VEC4"
        },
        {
            "bufferView" : 38,
            "componentType" : 5126,
            "count" : 2,
            "type" : "VEC3"
        }
    ],
    "bufferViews" : [
        {
            "buffer" : 0,
            "byteLength" : 44796,
            "byteOffset" : 0,
            "target" : 34962
        },
        {
            "buffer" : 0,
            "byteLength" : 44796,
            "byteOffset" : 44796,
            "target" : 34962
        },
        {
            "buffer" : 0,
            "byteLength" : 29864,
            "byteOffset" : 89592,
            "target" : 34962
        },
        {
            "buffer" : 0,
            "byteLength" : 11280,
            "byteOffset" : 119456,
            "target" : 34963
        },
        {
            "buffer" : 0,
            "byteLength" : 543936,
            "byteOffset" : 130736,
            "target" : 34962
        },
        {
            "buffer" : 0,
            "byteLength" : 543936,
            "byteOffset" : 674672,
            "target" : 34962
        },
        {
            "buffer" : 0,
            "byteLength" : 362624,
            "byteOffset" : 1218608,
            "target" : 34962
        },
        {
            "buffer" : 0,
            "byteLength" : 331272,
            "byteOffset" : 1581232,
            "target" : 34963
        },
        {
            "buffer" : 0,
            "byteLength" : 100632,
            "byteOffset" : 1912504,
            "target" : 34962
        },
        {
            "buffer" : 0,
            "byteLength" : 100632,
            "byteOffset" : 2013136,
            "target" : 34962
        },
        {
            "buffer" : 0,
            "byteLength" : 67088,
            "byteOffset" : 2113768,
            "target" : 34962
        },
        {
            "buffer" : 0,
            "byteLength" : 25146,
            "byteOffset" : 2180856,
            "target" : 34963
        },
        {
            "buffer" : 0,
            "byteLength" : 15108,
            "byteOffset" : 2206004,
            "target" : 34962
        },
        {
            "buffer" : 0,
            "byteLength" : 15108,
            "byteOffset" : 2221112,
            "target" : 34962
        },
        {
            "buffer" : 0,
            "byteLength" : 10072,
            "byteOffset" : 2236220,
            "target" : 34962
        },
        {
            "buffer" : 0,
            "byteLength" : 3726,
            "byteOffset" : 2246292,
            "target" : 34963
        },
        {
            "buffer" : 0,
            "byteLength" : 19008,
            "byteOffset" : 2250020,
            "target" : 34962
        },
        {
            "buffer" : 0,
            "byteLength" : 19008,
            "byteOffset" : 2269028,
            "target" : 34962
        },
        {
            "buffer" : 0,
            "byteLength" : 12672,
            "byteOffset" : 2288036,
            "target" : 34962
        },
        {
            "buffer" : 0,
            "byteLength" : 4704,
            "byteOffset" : 2300708,
            "target" : 34963
        },
        {
            "buffer" : 0,
            "byteLength" : 46032,
            "byteOffset" : 2305412,
            "target" : 34962
        },
        {
            "buffer" : 0,
            "byteLength" : 46032,
            "byteOffset" : 2351444,
            "target" : 34962
        },
        {
            "buffer" : 0,
            "byteLength" : 30688,
            "byteOffset" : 2397476,
            "target" : 34962
        },
        {
            "buffer" : 0,
            "byteLength" : 11424,
            "byteOffset" : 2428164,
            "target" : 34963
        },
        {
            "buffer" : 0,
            "byteLength" : 109920,
            "byteOffset" : 2439588,
            "target" : 34962
        },
        {
            "buffer" : 0,
            "byteLength" : 109920,
            "byteOffset" : 2549508,
            "target" : 34962
        },
        {
            "buffer" : 0,
            "byteLength" : 73280,
            "byteOffset" : 2659428,
            "target" : 34962
        },
        {
            "buffer" : 0,
            "byteLength" : 27996,
            "byteOffset" : 2732708,
            "target" : 34963
        },
        {
            "buffer" : 0,
            "byteLength" : 3697896,
            "byteOffset" : 2760704,
            "target" : 34962
        },
        {
            "buffer" : 0,
            "byteLength" : 3697896,
            "byteOffset" : 6458600,
            "target" : 34962
        },
        {
            "buffer" : 0,
            "byteLength" : 2465264,
            "byteOffset" : 10156496,
            "target" : 34962
        },
        {
            "buffer" : 0,
            "byteLength" : 5317296,
            "byteOffset" : 12621760,
            "target" : 34963
        },
        {
            "buffer" : 0,
            "byteLength" : 8,
            "byteOffset" : 17939056
        },
        {
            "buffer" : 0,
            "byteLength" : 24,
            "byteOffset" : 17939064
        },
        {
            "buffer" : 0,
            "byteLength" : 32,
            "byteOffset" : 17939088
        },
        {
            "buffer" : 0,
            "byteLength" : 24,
            "byteOffset" : 17939120
        },
        {
            "buffer" : 0,
            "byteLength" : 24,
            "byteOffset" : 17939144
        },
        {
            "buffer" : 0,
            "byteLength" : 32,
            "byteOffset" : 17939168
        },
        {
            "buffer" : 0,
            "byteLength" : 24,
            "byteOffset" : 17939200
        }
    ],
    "buffers" : [
        {
            "byteLength" : 17939224,
            "uri" : "mono1-engravedexport.bin"
        }
    ]
}
