{
    "asset" : {
        "generator" : "Khronos glTF Blender I/O v3.3.32",
        "version" : "2.0"
    },
    "scene" : 0,
    "scenes" : [
        {
            "name" : "Scene",
            "nodes" : [
                0
            ]
        }
    ],
    "nodes" : [
        {
            "mesh" : 0,
            "name" : "Cube.008",
            "rotation" : [
                0,
                -0.14913292229175568,
                0,
                0.9888171553611755
            ],
            "scale" : [
                1.5923901796340942,
                1.0072417259216309,
                0.4638916850090027
            ],
            "translation" : [
                25.05544662475586,
                1.013074278831482,
                0.20709721744060516
            ]
        }
    ],
    "animations" : [
        {
            "channels" : [
                {
                    "sampler" : 0,
                    "target" : {
                        "node" : 0,
                        "path" : "translation"
                    }
                },
                {
                    "sampler" : 1,
                    "target" : {
                        "node" : 0,
                        "path" : "rotation"
                    }
                },
                {
                    "sampler" : 2,
                    "target" : {
                        "node" : 0,
                        "path" : "scale"
                    }
                }
            ],
            "name" : "Cube.008",
            "samplers" : [
                {
                    "input" : 28,
                    "interpolation" : "LINEAR",
                    "output" : 29
                },
                {
                    "input" : 28,
                    "interpolation" : "LINEAR",
                    "output" : 30
                },
                {
                    "input" : 28,
                    "interpolation" : "LINEAR",
                    "output" : 31
                }
            ]
        }
    ],
    "materials" : [
        {
            "doubleSided" : true,
            "name" : "stone light.004",
            "pbrMetallicRoughness" : {
                "baseColorFactor" : [
                    0.12148302048444748,
                    0.0925261378288269,
                    0.05395966023206711,
                    1
                ],
                "metallicFactor" : 0,
                "roughnessFactor" : 0.5
            }
        },
        {
            "doubleSided" : true,
            "name" : "stone dark.005",
            "pbrMetallicRoughness" : {
                "baseColorFactor" : [
                    0.04569915309548378,
                    0.03320207819342613,
                    0.02093132957816124,
                    1
                ],
                "metallicFactor" : 0,
                "roughnessFactor" : 0.5
            }
        },
        {
            "doubleSided" : true,
            "name" : "stone med.004",
            "pbrMetallicRoughness" : {
                "baseColorFactor" : [
                    0.0782862976193428,
                    0.05728227645158768,
                    0.031089307740330696,
                    1
                ],
                "metallicFactor" : 0,
                "roughnessFactor" : 0.5
            }
        },
        {
            "doubleSided" : true,
            "name" : "new green xdark.003",
            "pbrMetallicRoughness" : {
                "baseColorFactor" : [
                    0.01913481578230858,
                    0.03853574022650719,
                    0.014118634164333344,
                    1
                ],
                "metallicFactor" : 0,
                "roughnessFactor" : 0.5
            }
        },
        {
            "doubleSided" : true,
            "name" : "new green dark",
            "pbrMetallicRoughness" : {
                "baseColorFactor" : [
                    0.03990150988101959,
                    0.0965551882982254,
                    0.05854443833231926,
                    1
                ],
                "metallicFactor" : 0,
                "roughnessFactor" : 0.5
            }
        },
        {
            "doubleSided" : true,
            "name" : "new green med/dark.004",
            "pbrMetallicRoughness" : {
                "baseColorFactor" : [
                    0.0466822013258934,
                    0.1004791259765625,
                    0.033287543803453445,
                    1
                ],
                "metallicFactor" : 0,
                "roughnessFactor" : 0.5
            }
        },
        {
            "doubleSided" : true,
            "name" : "new green med.004",
            "pbrMetallicRoughness" : {
                "baseColorFactor" : [
                    0.08300872147083282,
                    0.18446806073188782,
                    0.058145444840192795,
                    1
                ],
                "metallicFactor" : 0,
                "roughnessFactor" : 0.5
            }
        }
    ],
    "meshes" : [
        {
            "name" : "Cube.002",
            "primitives" : [
                {
                    "attributes" : {
                        "POSITION" : 0,
                        "NORMAL" : 1,
                        "TEXCOORD_0" : 2
                    },
                    "indices" : 3,
                    "material" : 0
                },
                {
                    "attributes" : {
                        "POSITION" : 4,
                        "NORMAL" : 5,
                        "TEXCOORD_0" : 6
                    },
                    "indices" : 7,
                    "material" : 1
                },
                {
                    "attributes" : {
                        "POSITION" : 8,
                        "NORMAL" : 9,
                        "TEXCOORD_0" : 10
                    },
                    "indices" : 11,
                    "material" : 2
                },
                {
                    "attributes" : {
                        "POSITION" : 12,
                        "NORMAL" : 13,
                        "TEXCOORD_0" : 14
                    },
                    "indices" : 15,
                    "material" : 3
                },
                {
                    "attributes" : {
                        "POSITION" : 16,
                        "NORMAL" : 17,
                        "TEXCOORD_0" : 18
                    },
                    "indices" : 19,
                    "material" : 4
                },
                {
                    "attributes" : {
                        "POSITION" : 20,
                        "NORMAL" : 21,
                        "TEXCOORD_0" : 22
                    },
                    "indices" : 23,
                    "material" : 5
                },
                {
                    "attributes" : {
                        "POSITION" : 24,
                        "NORMAL" : 25,
                        "TEXCOORD_0" : 26
                    },
                    "indices" : 27,
                    "material" : 6
                }
            ]
        }
    ],
    "accessors" : [
        {
            "bufferView" : 0,
            "componentType" : 5126,
            "count" : 38547,
            "max" : [
                1.8700101375579834,
                4.109946250915527,
                1.0530877113342285
            ],
            "min" : [
                -1.4439724683761597,
                -1.0000001192092896,
                -1.0000001192092896
            ],
            "type" : "VEC3"
        },
        {
            "bufferView" : 1,
            "componentType" : 5126,
            "count" : 38547,
            "type" : "VEC3"
        },
        {
            "bufferView" : 2,
            "componentType" : 5126,
            "count" : 38547,
            "type" : "VEC2"
        },
        {
            "bufferView" : 3,
            "componentType" : 5123,
            "count" : 115767,
            "type" : "SCALAR"
        },
        {
            "bufferView" : 4,
            "componentType" : 5126,
            "count" : 204092,
            "max" : [
                2.299024820327759,
                4.34774112701416,
                1.0960519313812256
            ],
            "min" : [
                -1.5950112342834473,
                -0.9968929886817932,
                -0.803826093673706
            ],
            "type" : "VEC3"
        },
        {
            "bufferView" : 5,
            "componentType" : 5126,
            "count" : 204092,
            "type" : "VEC3"
        },
        {
            "bufferView" : 6,
            "componentType" : 5126,
            "count" : 204092,
            "type" : "VEC2"
        },
        {
            "bufferView" : 7,
            "componentType" : 5125,
            "count" : 498024,
            "type" : "SCALAR"
        },
        {
            "bufferView" : 8,
            "componentType" : 5126,
            "count" : 118,
            "max" : [
                2.1604397296905518,
                4.474303245544434,
                0.9546178579330444
            ],
            "min" : [
                -0.535355806350708,
                -1.0077420473098755,
                -1.0711592435836792
            ],
            "type" : "VEC3"
        },
        {
            "bufferView" : 9,
            "componentType" : 5126,
            "count" : 118,
            "type" : "VEC3"
        },
        {
            "bufferView" : 10,
            "componentType" : 5126,
            "count" : 118,
            "type" : "VEC2"
        },
        {
            "bufferView" : 11,
            "componentType" : 5123,
            "count" : 192,
            "type" : "SCALAR"
        },
        {
            "bufferView" : 12,
            "componentType" : 5126,
            "count" : 6291,
            "max" : [
                3.56510853767395,
                0.22143161296844482,
                4.44713020324707
            ],
            "min" : [
                -2.4684576988220215,
                -0.8911139965057373,
                -1.498188853263855
            ],
            "type" : "VEC3"
        },
        {
            "bufferView" : 13,
            "componentType" : 5126,
            "count" : 6291,
            "type" : "VEC3"
        },
        {
            "bufferView" : 14,
            "componentType" : 5126,
            "count" : 6291,
            "type" : "VEC2"
        },
        {
            "bufferView" : 15,
            "componentType" : 5123,
            "count" : 8073,
            "type" : "SCALAR"
        },
        {
            "bufferView" : 16,
            "componentType" : 5126,
            "count" : 9877,
            "max" : [
                3.6403627395629883,
                2.577314853668213,
                4.469365119934082
            ],
            "min" : [
                -2.5777292251586914,
                -1.0116218328475952,
                -2.1181640625
            ],
            "type" : "VEC3"
        },
        {
            "bufferView" : 17,
            "componentType" : 5126,
            "count" : 9877,
            "type" : "VEC3"
        },
        {
            "bufferView" : 18,
            "componentType" : 5126,
            "count" : 9877,
            "type" : "VEC2"
        },
        {
            "bufferView" : 19,
            "componentType" : 5123,
            "count" : 13443,
            "type" : "SCALAR"
        },
        {
            "bufferView" : 20,
            "componentType" : 5126,
            "count" : 880,
            "max" : [
                4.224430561065674,
                1.5189054012298584,
                -0.19472908973693848
            ],
            "min" : [
                1.7985436916351318,
                -0.9995736479759216,
                -7.232755661010742
            ],
            "type" : "VEC3"
        },
        {
            "bufferView" : 21,
            "componentType" : 5126,
            "count" : 880,
            "type" : "VEC3"
        },
        {
            "bufferView" : 22,
            "componentType" : 5126,
            "count" : 880,
            "type" : "VEC2"
        },
        {
            "bufferView" : 23,
            "componentType" : 5123,
            "count" : 1320,
            "type" : "SCALAR"
        },
        {
            "bufferView" : 24,
            "componentType" : 5126,
            "count" : 1956,
            "max" : [
                2.824960708618164,
                1.5189054012298584,
                4.611032009124756
            ],
            "min" : [
                -2.760011672973633,
                -1.0551704168319702,
                -7.608423233032227
            ],
            "type" : "VEC3"
        },
        {
            "bufferView" : 25,
            "componentType" : 5126,
            "count" : 1956,
            "type" : "VEC3"
        },
        {
            "bufferView" : 26,
            "componentType" : 5126,
            "count" : 1956,
            "type" : "VEC2"
        },
        {
            "bufferView" : 27,
            "componentType" : 5123,
            "count" : 2640,
            "type" : "SCALAR"
        },
        {
            "bufferView" : 28,
            "componentType" : 5126,
            "count" : 2,
            "max" : [
                1
            ],
            "min" : [
                0.9583333333333334
            ],
            "type" : "SCALAR"
        },
        {
            "bufferView" : 29,
            "componentType" : 5126,
            "count" : 2,
            "type" : "VEC3"
        },
        {
            "bufferView" : 30,
            "componentType" : 5126,
            "count" : 2,
            "type" : "VEC4"
        },
        {
            "bufferView" : 31,
            "componentType" : 5126,
            "count" : 2,
            "type" : "VEC3"
        }
    ],
    "bufferViews" : [
        {
            "buffer" : 0,
            "byteLength" : 462564,
            "byteOffset" : 0,
            "target" : 34962
        },
        {
            "buffer" : 0,
            "byteLength" : 462564,
            "byteOffset" : 462564,
            "target" : 34962
        },
        {
            "buffer" : 0,
            "byteLength" : 308376,
            "byteOffset" : 925128,
            "target" : 34962
        },
        {
            "buffer" : 0,
            "byteLength" : 231534,
            "byteOffset" : 1233504,
            "target" : 34963
        },
        {
            "buffer" : 0,
            "byteLength" : 2449104,
            "byteOffset" : 1465040,
            "target" : 34962
        },
        {
            "buffer" : 0,
            "byteLength" : 2449104,
            "byteOffset" : 3914144,
            "target" : 34962
        },
        {
            "buffer" : 0,
            "byteLength" : 1632736,
            "byteOffset" : 6363248,
            "target" : 34962
        },
        {
            "buffer" : 0,
            "byteLength" : 1992096,
            "byteOffset" : 7995984,
            "target" : 34963
        },
        {
            "buffer" : 0,
            "byteLength" : 1416,
            "byteOffset" : 9988080,
            "target" : 34962
        },
        {
            "buffer" : 0,
            "byteLength" : 1416,
            "byteOffset" : 9989496,
            "target" : 34962
        },
        {
            "buffer" : 0,
            "byteLength" : 944,
            "byteOffset" : 9990912,
            "target" : 34962
        },
        {
            "buffer" : 0,
            "byteLength" : 384,
            "byteOffset" : 9991856,
            "target" : 34963
        },
        {
            "buffer" : 0,
            "byteLength" : 75492,
            "byteOffset" : 9992240,
            "target" : 34962
        },
        {
            "buffer" : 0,
            "byteLength" : 75492,
            "byteOffset" : 10067732,
            "target" : 34962
        },
        {
            "buffer" : 0,
            "byteLength" : 50328,
            "byteOffset" : 10143224,
            "target" : 34962
        },
        {
            "buffer" : 0,
            "byteLength" : 16146,
            "byteOffset" : 10193552,
            "target" : 34963
        },
        {
            "buffer" : 0,
            "byteLength" : 118524,
            "byteOffset" : 10209700,
            "target" : 34962
        },
        {
            "buffer" : 0,
            "byteLength" : 118524,
            "byteOffset" : 10328224,
            "target" : 34962
        },
        {
            "buffer" : 0,
            "byteLength" : 79016,
            "byteOffset" : 10446748,
            "target" : 34962
        },
        {
            "buffer" : 0,
            "byteLength" : 26886,
            "byteOffset" : 10525764,
            "target" : 34963
        },
        {
            "buffer" : 0,
            "byteLength" : 10560,
            "byteOffset" : 10552652,
            "target" : 34962
        },
        {
            "buffer" : 0,
            "byteLength" : 10560,
            "byteOffset" : 10563212,
            "target" : 34962
        },
        {
            "buffer" : 0,
            "byteLength" : 7040,
            "byteOffset" : 10573772,
            "target" : 34962
        },
        {
            "buffer" : 0,
            "byteLength" : 2640,
            "byteOffset" : 10580812,
            "target" : 34963
        },
        {
            "buffer" : 0,
            "byteLength" : 23472,
            "byteOffset" : 10583452,
            "target" : 34962
        },
        {
            "buffer" : 0,
            "byteLength" : 23472,
            "byteOffset" : 10606924,
            "target" : 34962
        },
        {
            "buffer" : 0,
            "byteLength" : 15648,
            "byteOffset" : 10630396,
            "target" : 34962
        },
        {
            "buffer" : 0,
            "byteLength" : 5280,
            "byteOffset" : 10646044,
            "target" : 34963
        },
        {
            "buffer" : 0,
            "byteLength" : 8,
            "byteOffset" : 10651324
        },
        {
            "buffer" : 0,
            "byteLength" : 24,
            "byteOffset" : 10651332
        },
        {
            "buffer" : 0,
            "byteLength" : 32,
            "byteOffset" : 10651356
        },
        {
            "buffer" : 0,
            "byteLength" : 24,
            "byteOffset" : 10651388
        }
    ],
    "buffers" : [
        {
            "byteLength" : 10651412,
            "uri" : "mono4.bin"
        }
    ]
}
