{
    "asset" : {
        "generator" : "Khronos glTF Blender I/O v3.3.32",
        "version" : "2.0"
    },
    "scene" : 0,
    "scenes" : [
        {
            "name" : "Scene",
            "nodes" : [
                0
            ]
        }
    ],
    "nodes" : [
        {
            "mesh" : 0,
            "name" : "Cube.009",
            "rotation" : [
                -0.3674922585487366,
                0.3674922287464142,
                -0.6041104793548584,
                0.6041104793548584
            ],
            "scale" : [
                1.021637201309204,
                0.07564643025398254,
                0.07564643025398254
            ],
            "translation" : [
                28.072086334228516,
                2.0489039421081543,
                2.3653101921081543
            ]
        }
    ],
    "animations" : [
        {
            "channels" : [
                {
                    "sampler" : 0,
                    "target" : {
                        "node" : 0,
                        "path" : "translation"
                    }
                },
                {
                    "sampler" : 1,
                    "target" : {
                        "node" : 0,
                        "path" : "rotation"
                    }
                },
                {
                    "sampler" : 2,
                    "target" : {
                        "node" : 0,
                        "path" : "scale"
                    }
                }
            ],
            "name" : "Cube.009",
            "samplers" : [
                {
                    "input" : 8,
                    "interpolation" : "LINEAR",
                    "output" : 9
                },
                {
                    "input" : 8,
                    "interpolation" : "LINEAR",
                    "output" : 10
                },
                {
                    "input" : 8,
                    "interpolation" : "LINEAR",
                    "output" : 11
                }
            ]
        }
    ],
    "materials" : [
        {
            "doubleSided" : true,
            "name" : "stone dark.005",
            "pbrMetallicRoughness" : {
                "baseColorFactor" : [
                    0.04569915309548378,
                    0.03320207819342613,
                    0.02093132957816124,
                    1
                ],
                "metallicFactor" : 0,
                "roughnessFactor" : 0.5
            }
        },
        {
            "doubleSided" : true,
            "name" : "Material.029",
            "pbrMetallicRoughness" : {
                "baseColorFactor" : [
                    0,
                    0,
                    0,
                    1
                ],
                "metallicFactor" : 0,
                "roughnessFactor" : 0.5
            }
        }
    ],
    "meshes" : [
        {
            "name" : "Cube.001",
            "primitives" : [
                {
                    "attributes" : {
                        "POSITION" : 0,
                        "NORMAL" : 1,
                        "TEXCOORD_0" : 2
                    },
                    "indices" : 3,
                    "material" : 0
                },
                {
                    "attributes" : {
                        "POSITION" : 4,
                        "NORMAL" : 5,
                        "TEXCOORD_0" : 6
                    },
                    "indices" : 7,
                    "material" : 1
                }
            ]
        }
    ],
    "accessors" : [
        {
            "bufferView" : 0,
            "componentType" : 5126,
            "count" : 2738,
            "max" : [
                1.9999970197677612,
                1.9939391613006592,
                12.42168140411377
            ],
            "min" : [
                -0.06952452659606934,
                -0.9496709108352661,
                -12.426314353942871
            ],
            "type" : "VEC3"
        },
        {
            "bufferView" : 1,
            "componentType" : 5126,
            "count" : 2738,
            "type" : "VEC3"
        },
        {
            "bufferView" : 2,
            "componentType" : 5126,
            "count" : 2738,
            "type" : "VEC2"
        },
        {
            "bufferView" : 3,
            "componentType" : 5123,
            "count" : 6300,
            "type" : "SCALAR"
        },
        {
            "bufferView" : 4,
            "componentType" : 5126,
            "count" : 22226,
            "max" : [
                0.582995593547821,
                -0.7895593643188477,
                8.345532417297363
            ],
            "min" : [
                0.1087617576122284,
                -0.9600623250007629,
                -8.098901748657227
            ],
            "type" : "VEC3"
        },
        {
            "bufferView" : 5,
            "componentType" : 5126,
            "count" : 22226,
            "type" : "VEC3"
        },
        {
            "bufferView" : 6,
            "componentType" : 5126,
            "count" : 22226,
            "type" : "VEC2"
        },
        {
            "bufferView" : 7,
            "componentType" : 5123,
            "count" : 36639,
            "type" : "SCALAR"
        },
        {
            "bufferView" : 8,
            "componentType" : 5126,
            "count" : 2,
            "max" : [
                1
            ],
            "min" : [
                0.9583333333333334
            ],
            "type" : "SCALAR"
        },
        {
            "bufferView" : 9,
            "componentType" : 5126,
            "count" : 2,
            "type" : "VEC3"
        },
        {
            "bufferView" : 10,
            "componentType" : 5126,
            "count" : 2,
            "type" : "VEC4"
        },
        {
            "bufferView" : 11,
            "componentType" : 5126,
            "count" : 2,
            "type" : "VEC3"
        }
    ],
    "bufferViews" : [
        {
            "buffer" : 0,
            "byteLength" : 32856,
            "byteOffset" : 0,
            "target" : 34962
        },
        {
            "buffer" : 0,
            "byteLength" : 32856,
            "byteOffset" : 32856,
            "target" : 34962
        },
        {
            "buffer" : 0,
            "byteLength" : 21904,
            "byteOffset" : 65712,
            "target" : 34962
        },
        {
            "buffer" : 0,
            "byteLength" : 12600,
            "byteOffset" : 87616,
            "target" : 34963
        },
        {
            "buffer" : 0,
            "byteLength" : 266712,
            "byteOffset" : 100216,
            "target" : 34962
        },
        {
            "buffer" : 0,
            "byteLength" : 266712,
            "byteOffset" : 366928,
            "target" : 34962
        },
        {
            "buffer" : 0,
            "byteLength" : 177808,
            "byteOffset" : 633640,
            "target" : 34962
        },
        {
            "buffer" : 0,
            "byteLength" : 73278,
            "byteOffset" : 811448,
            "target" : 34963
        },
        {
            "buffer" : 0,
            "byteLength" : 8,
            "byteOffset" : 884728
        },
        {
            "buffer" : 0,
            "byteLength" : 24,
            "byteOffset" : 884736
        },
        {
            "buffer" : 0,
            "byteLength" : 32,
            "byteOffset" : 884760
        },
        {
            "buffer" : 0,
            "byteLength" : 24,
            "byteOffset" : 884792
        }
    ],
    "buffers" : [
        {
            "byteLength" : 884816,
            "uri" : "sign.bin"
        }
    ]
}
